<?xml version="1.0" encoding="UTF-8"?>
<svg version="1.1" xmlns="http://www.w3.org/2000/svg" width="195" height="195">
<path d="M0 0 C17.04349211 14.36191393 27.57344538 32.06872934 31.58203125 54.17578125 C31.71351563 54.89121094 31.845 55.60664062 31.98046875 56.34375 C35.26780526 77.88913118 29.01052765 100.47170895 16.58203125 118.17578125 C13.17924323 122.43362195 9.42754508 126.31929591 5.58203125 130.17578125 C4.87433594 130.90667969 4.16664063 131.63757813 3.4375 132.390625 C-13.67395204 148.91315518 -36.22669107 153.74900349 -59.22265625 153.4453125 C-82.2422225 152.73362015 -102.59594621 141.80140563 -118.29296875 125.30078125 C-135.07580317 105.58563004 -140.75915324 82.48042344 -139.41796875 57.17578125 C-137.20429308 35.54415858 -125.22374365 14.94754543 -108.78515625 1.01171875 C-76.43958276 -24.07478214 -32.50087057 -25.09437533 0 0 Z " fill="#E83926" transform="translate(153.41796875,26.82421875)"/>
<path d="M0 0 C0.92783798 -0.01268417 1.85567596 -0.02536835 2.81163025 -0.03843689 C4.31168358 -0.03403343 4.31168358 -0.03403343 5.84204102 -0.02954102 C7.38626488 -0.03740379 7.38626488 -0.03740379 8.96168518 -0.04542542 C11.13964943 -0.051851 13.31764836 -0.05050171 15.49560547 -0.04199219 C18.82981152 -0.03348842 22.16230146 -0.06222734 25.49633789 -0.09399414 C27.61157175 -0.09560635 29.72680865 -0.09502824 31.84204102 -0.09204102 C32.84005234 -0.10327499 33.83806366 -0.11450897 34.86631775 -0.12608337 C36.26280296 -0.11201195 36.26280296 -0.11201195 37.6875 -0.09765625 C38.91302834 -0.097407 38.91302834 -0.097407 40.16331482 -0.09715271 C43.33113677 0.61003479 44.50327232 1.80329946 46.40844727 4.40405273 C46.7457428 7.1330719 46.7457428 7.1330719 46.52587891 10.3046875 C46.42635925 12.09665306 46.42635925 12.09665306 46.3248291 13.92481995 C46.24027466 15.21863083 46.15572021 16.51244171 46.06860352 17.84545898 C45.94052268 20.61302428 45.84028067 23.38128805 45.74462891 26.15014648 C45.71943995 26.86761331 45.69425098 27.58508013 45.66829872 28.32428837 C43.86478791 56.31234531 43.86478791 56.31234531 55.27012634 80.67811584 C60.97676716 86.43793592 67.44981634 91.27040383 74.40844727 95.40405273 C81.37749413 88.68751406 84.66655064 79.54370816 87.40844727 70.40405273 C88.39844727 70.40405273 89.38844727 70.40405273 90.40844727 70.40405273 C90.37750977 68.51686523 90.37750977 68.51686523 90.34594727 66.59155273 C90.29958643 63.76354186 90.49151765 62.15484157 91.40844727 59.40405273 C91.50355887 57.05143917 91.53831703 54.69608307 91.53344727 52.34155273 C91.53602539 51.09245117 91.53860352 49.84334961 91.54125977 48.55639648 C91.62793003 45.5020456 91.62793003 45.5020456 90.40844727 43.40405273 C90.33894185 41.86381277 90.32392369 40.32070286 90.34594727 38.77905273 C90.3549707 37.96178711 90.36399414 37.14452148 90.37329102 36.30249023 C90.39069336 35.36276367 90.39069336 35.36276367 90.40844727 34.40405273 C91.39844727 34.40405273 92.38844727 34.40405273 93.40844727 34.40405273 C94.06844727 35.06405273 94.72844727 35.72405273 95.40844727 36.40405273 C95.86219727 35.78530273 96.31594727 35.16655273 96.78344727 34.52905273 C98.40844727 32.40405273 98.40844727 32.40405273 100.40844727 30.40405273 C100.40844727 32.38405273 100.40844727 34.36405273 100.40844727 36.40405273 C101.06844727 36.40405273 101.72844727 36.40405273 102.40844727 36.40405273 C105.59026545 55.04041637 105.59026545 55.04041637 103.40844727 59.40405273 C103.35179678 61.22316292 103.29912134 63.04252619 103.27124023 64.86230469 C103.04653247 74.82253091 100.79286049 82.51592252 96.40844727 91.40405273 C95.8915332 92.45334961 95.37461914 93.50264648 94.84204102 94.58374023 C90.49620734 102.64709429 84.82524999 108.96894244 78.40844727 115.40405273 C77.70075195 116.13495117 76.99305664 116.86584961 76.26391602 117.61889648 C59.15246397 134.14142666 36.59972494 138.97727498 13.60375977 138.67358398 C-9.41580648 137.96189164 -29.76953019 127.02967711 -45.46655273 110.52905273 C-62.23707336 90.8283668 -67.95675146 67.69815131 -66.59155273 42.40405273 C-65.82599412 35.01641207 -64.61728536 29.05281007 -59.59155273 23.40405273 C-59.69983398 24.32637695 -59.69983398 24.32637695 -59.81030273 25.26733398 C-59.90311523 26.07557617 -59.99592773 26.88381836 -60.09155273 27.71655273 C-60.18436523 28.51706055 -60.27717773 29.31756836 -60.37280273 30.14233398 C-60.63968736 32.52301828 -60.63968736 32.52301828 -60.59155273 35.40405273 C-56.199015 36.96677462 -56.199015 36.96677462 -51.59155273 37.40405273 C-51.92155273 46.31405273 -52.25155273 55.22405273 -52.59155273 64.40405273 C-51.93155273 64.40405273 -51.27155273 64.40405273 -50.59155273 64.40405273 C-50.18936523 66.00120117 -50.18936523 66.00120117 -49.77905273 67.63061523 C-44.58390126 87.26887946 -34.97648704 102.86790817 -17.12670898 113.46264648 C1.25319571 123.83685808 20.11532613 125.78970059 40.40844727 120.40405273 C48.15427947 117.82210867 54.83897875 114.23161672 61.40844727 109.40405273 C59.74981222 105.07900438 56.53740627 102.30986448 53.28344727 99.15405273 C52.72012695 98.59975586 52.15680664 98.04545898 51.57641602 97.47436523 C50.19158699 96.11300789 48.80061522 94.75790414 47.40844727 93.40405273 C47.29887695 94.10272461 47.18930664 94.80139648 47.07641602 95.52124023 C46.83858398 96.88635742 46.83858398 96.88635742 46.59594727 98.27905273 C46.3697168 99.63643555 46.3697168 99.63643555 46.13891602 101.02124023 C45.40844727 103.40405273 45.40844727 103.40405273 42.40844727 105.40405273 C40.28356934 105.66474915 40.28356934 105.66474915 37.80102539 105.67871094 C36.86995972 105.68824295 35.93889404 105.69777496 34.97961426 105.70759583 C33.97644165 105.70668442 32.97326904 105.70577301 31.93969727 105.70483398 C30.39191589 105.71126167 30.39191589 105.71126167 28.81286621 105.71781921 C26.63070408 105.72356359 24.4485228 105.72406199 22.26635742 105.71972656 C18.9214629 105.71656504 15.57745124 105.74003039 12.23266602 105.76538086 C10.11417755 105.76765361 7.9956867 105.76835746 5.87719727 105.76733398 C4.87402466 105.77654373 3.87085205 105.78575348 2.83728027 105.79524231 C1.9062146 105.78901352 0.97514893 105.78278473 0.01586914 105.77636719 C-0.80337036 105.77699661 -1.62260986 105.77762604 -2.4666748 105.77827454 C-4.59155273 105.40405273 -4.59155273 105.40405273 -6.35823059 104.26351929 C-8.1466092 101.56720007 -7.9514033 99.4990966 -7.93212891 96.28027344 C-7.93178902 94.38865227 -7.93178902 94.38865227 -7.93144226 92.45881653 C-7.91612236 91.08248541 -7.90047437 89.70615791 -7.88452148 88.32983398 C-7.87892533 86.92165071 -7.87465532 85.51346159 -7.87165833 84.10527039 C-7.86021092 80.4012333 -7.83074508 76.69754984 -7.79754639 72.99365234 C-7.766843 69.21318343 -7.75315244 65.4326573 -7.73803711 61.65209961 C-7.7058749 54.23592287 -7.65468029 46.82003738 -7.59155273 39.40405273 C-6.93155273 39.40405273 -6.27155273 39.40405273 -5.59155273 39.40405273 C-5.57942245 40.39337296 -5.57942245 40.39337296 -5.56704712 41.40267944 C-5.48119701 48.24806481 -5.3817027 55.09315402 -5.27416992 61.93823242 C-5.23581294 64.4951481 -5.20097212 67.05211899 -5.16967773 69.60913086 C-5.12417298 73.27795182 -5.06615464 76.94639047 -5.00561523 80.61499023 C-4.99406403 81.76397797 -4.98251282 82.9129657 -4.97061157 84.09677124 C-4.95074188 85.15772003 -4.93087219 86.21866882 -4.91040039 87.31176758 C-4.89707672 88.24886566 -4.88375305 89.18596375 -4.87002563 90.15145874 C-4.80120808 92.60440425 -4.80120808 92.60440425 -2.59155273 94.40405273 C-0.66035288 94.70205601 -0.66035288 94.70205601 1.56689453 94.64697266 C2.42440811 94.65004929 3.28192169 94.65312592 4.16542053 94.65629578 C5.09253342 94.64911026 6.0196463 94.64192474 6.97485352 94.63452148 C8.39869606 94.63383415 8.39869606 94.63383415 9.8513031 94.63313293 C11.85954029 94.63010912 13.86777511 94.62221898 15.87597656 94.60986328 C18.96175375 94.59160713 22.04723109 94.58935355 25.13305664 94.58959961 C27.08032488 94.58468457 29.02759107 94.57885631 30.97485352 94.57202148 C31.90399063 94.57090866 32.83312775 94.56979584 33.79042053 94.56864929 C35.07196266 94.55907951 35.07196266 94.55907951 36.37939453 94.54931641 C37.13503189 94.54550461 37.89066925 94.54169281 38.66920471 94.5377655 C40.43787949 94.59156184 40.43787949 94.59156184 41.40844727 93.40405273 C41.78825454 89.90838118 41.85896065 88.05165679 39.82069397 85.12168884 C39.07758469 84.40396805 38.3344754 83.68624725 37.56884766 82.94677734 C36.73120377 82.12249741 35.89355988 81.29821747 35.03053284 80.44895935 C34.11497116 79.5769136 33.19940948 78.70486786 32.25610352 77.80639648 C30.83548282 76.41323966 29.41487252 75.02007203 27.99488735 73.62626743 C26.00451791 71.67956885 24.00105968 69.74662779 21.99713135 67.81390381 C18.49084907 64.43129843 14.99375168 61.03945853 11.51426697 57.62928772 C9.66132399 55.81593861 7.7985799 54.01254049 5.92530823 52.22019958 C5.08451218 51.39907181 4.24371613 50.57794403 3.37744141 49.73193359 C2.63353653 49.01500839 1.88963165 48.29808319 1.1231842 47.55943298 C-0.82519639 45.11036866 -1.34222861 43.50288144 -1.59155273 40.40405273 C-1.09655273 39.41405273 -1.09655273 39.41405273 -0.59155273 38.40405273 C-1.25155273 38.40405273 -1.91155273 38.40405273 -2.59155273 38.40405273 C-2.59155273 37.74405273 -2.59155273 37.08405273 -2.59155273 36.40405273 C-1.27155273 36.07405273 0.04844727 35.74405273 1.40844727 35.40405273 C1.90344727 37.87905273 1.90344727 37.87905273 2.40844727 40.40405273 C3.52219727 39.78530273 4.63594727 39.16655273 5.78344727 38.52905273 C6.40993164 38.18100586 7.03641602 37.83295898 7.68188477 37.47436523 C9.56970866 36.39508 9.56970866 36.39508 11.40844727 34.40405273 C11.73844727 35.39405273 12.06844727 36.38405273 12.40844727 37.40405273 C13.30321777 37.68812988 14.19798828 37.97220703 15.11987305 38.26489258 C19.01520148 39.61423203 21.24149371 41.72418959 24.02563477 44.63061523 C24.9445752 45.5595459 25.86351563 46.48847656 26.81030273 47.44555664 C27.95644043 48.62811035 29.10257812 49.81066406 30.28344727 51.02905273 C33.95469727 54.78280273 37.62594727 58.53655273 41.40844727 62.40405273 C41.40844727 44.91405273 41.40844727 27.42405273 41.40844727 9.40405273 C26.55844727 9.40405273 11.70844727 9.40405273 -3.59155273 9.40405273 C-4.25155273 11.05405273 -4.91155273 12.70405273 -5.59155273 14.40405273 C-6.25155273 14.07405273 -6.91155273 13.74405273 -7.59155273 13.40405273 C-7.67277197 11.80072483 -7.73084407 10.19621247 -7.77905273 8.59155273 C-7.83125977 7.25157227 -7.83125977 7.25157227 -7.88452148 5.88452148 C-7.59155273 3.40405273 -7.59155273 3.40405273 -6.36021423 1.77427673 C-4.1012976 0.02424046 -2.83883053 0.01879162 0 0 Z " fill="#E93724" transform="translate(80.591552734375,41.595947265625)"/>
<path d="M0 0 C11.92181336 5.7322911 24.17104961 14.18112157 29 27 C32.62310073 44.54126946 31.14476954 63.65038641 30.14579773 81.42814636 C30.08592178 82.62917496 30.02604584 83.83020355 29.96435547 85.06762695 C29.86790237 86.64662529 29.86790237 86.64662529 29.76950073 88.25752258 C30.04246958 91.5053025 30.61956443 92.78639629 33 95 C35.16371943 95.59611996 35.16371943 95.59611996 37.60742188 95.50170898 C39.00402039 95.51578041 39.00402039 95.51578041 40.42883301 95.53013611 C41.43200562 95.51890213 42.43517822 95.50766815 43.46875 95.49609375 C45.01653137 95.4982766 45.01653137 95.4982766 46.59558105 95.50050354 C48.77777936 95.49884311 50.95998921 95.48726583 53.14208984 95.46655273 C56.48715834 95.43761111 59.83064161 95.44593858 63.17578125 95.45898438 C65.29427856 95.45274679 67.41277085 95.44435569 69.53125 95.43359375 C71.03600891 95.43799721 71.03600891 95.43799721 72.57116699 95.44248962 C73.50223267 95.42980545 74.43329834 95.41712128 75.39257812 95.40405273 C76.21181763 95.39864975 77.03105713 95.39324677 77.87512207 95.38768005 C80.50349911 94.90813752 81.3877822 94.09443165 83 92 C83.57323807 89.72838745 83.57323807 89.72838745 83.6875 87.3125 C83.75324219 86.50425781 83.81898437 85.69601563 83.88671875 84.86328125 C83.92410156 84.24839844 83.96148437 83.63351563 84 83 C89.66129431 87.69766975 94.85228904 92.74723372 100 98 C97.35459999 104.67100873 89.54840186 107.46125145 83.3125 110.1875 C65.37161102 116.91885395 46.88522431 116.71765175 29.2265625 109.46875 C9.13268566 100.3219005 -2.89029944 86.0808905 -11.26171875 65.96875 C-16.85353771 49.80152606 -16.00168412 30.55374115 -9 15 C-2.99124939 2.99124939 -2.99124939 2.99124939 0 0 Z " fill="#FDFAF9" transform="translate(43,51)"/>
<path d="M0 0 C1.04027344 0.43570312 2.08054687 0.87140625 3.15234375 1.3203125 C10.26174987 4.60157686 16.15618477 8.82025469 22 14 C22.61359375 14.51949219 23.2271875 15.03898437 23.859375 15.57421875 C36.57283078 27.15046174 44.1440852 44.95059123 45.25390625 61.87109375 C45.63109239 71.90516774 44.2071228 80.43411816 41 90 C40.54947266 91.38832031 40.54947266 91.38832031 40.08984375 92.8046875 C37.76418948 99.26819418 34.130399 104.54694514 30 110 C29.07856201 109.20182861 28.15712402 108.40365723 27.20776367 107.58129883 C24.97536677 105.65003112 22.72309331 103.78546245 20.3890686 101.97714233 C0.8644945 86.69187145 0.8644945 86.69187145 -0.86572266 74.25634766 C-1.67169115 66.52272718 -1.33130298 58.74381544 -0.91589355 50.99627686 C-0.74147306 47.31233884 -0.69071592 43.62673047 -0.63085938 39.93945312 C-0.5174109 33.50150446 -0.29701396 27.07455915 0.01017761 20.64241028 C0.13723831 17.89076248 0.13723831 17.89076248 -1 15 C-7.92329438 14.89872467 -14.84639836 14.82858734 -21.77026367 14.78027344 C-24.12645608 14.76013643 -26.48259839 14.73282484 -28.83862305 14.69824219 C-32.22196806 14.64981713 -35.6046534 14.62705204 -38.98828125 14.609375 C-40.04461258 14.58872986 -41.10094391 14.56808472 -42.18928528 14.54681396 C-43.66047066 14.54636078 -43.66047066 14.54636078 -45.16137695 14.54589844 C-46.02519485 14.53701599 -46.88901276 14.52813354 -47.77900696 14.51898193 C-50.14411097 14.81824027 -50.14411097 14.81824027 -51.75944519 16.79400635 C-53.44241461 19.78671561 -53.67438702 22.61362498 -54 26 C-59.29012124 21.59156563 -64.18808428 16.92440206 -69 12 C-66.4178604 5.57917159 -59.65152536 3.14776677 -53.625 0.5390625 C-37.02093725 -5.98935308 -16.68780828 -7.00583346 0 0 Z " fill="#FCF9F8" transform="translate(126,28)"/>
<path d="M0 0 C0.92783798 -0.01268417 1.85567596 -0.02536835 2.81163025 -0.03843689 C4.31168358 -0.03403343 4.31168358 -0.03403343 5.84204102 -0.02954102 C7.38626488 -0.03740379 7.38626488 -0.03740379 8.96168518 -0.04542542 C11.13964943 -0.051851 13.31764836 -0.05050171 15.49560547 -0.04199219 C18.82981152 -0.03348842 22.16230146 -0.06222734 25.49633789 -0.09399414 C27.61157175 -0.09560635 29.72680865 -0.09502824 31.84204102 -0.09204102 C32.84005234 -0.10327499 33.83806366 -0.11450897 34.86631775 -0.12608337 C36.26280296 -0.11201195 36.26280296 -0.11201195 37.6875 -0.09765625 C38.50451889 -0.09749008 39.32153778 -0.09732391 40.16331482 -0.09715271 C43.3359806 0.61111613 44.49727401 1.7999278 46.40844727 4.40405273 C46.82649231 7.21382141 46.82649231 7.21382141 46.71630859 10.49511719 C46.68761185 11.72772781 46.6589151 12.96033844 46.62934875 14.2303009 C46.60583155 14.88724253 46.58231434 15.54418415 46.55808449 16.2210331 C46.4895058 18.29677618 46.45571578 20.37034403 46.43278503 22.44706726 C46.36644207 28.34946626 46.27958654 34.2491967 46.06933594 40.1484375 C44.76755938 57.79235079 44.76755938 57.79235079 50.75756836 73.61645508 C53.82531777 76.89238247 57.20689586 79.53102661 60.85897827 82.12045288 C63.01444851 83.90607189 63.73629585 85.7249302 64.40844727 88.40405273 C64.63532227 89.12592773 64.86219727 89.84780273 65.09594727 90.59155273 C65.40844727 92.40405273 65.40844727 92.40405273 64.40844727 94.40405273 C63.74844727 94.40405273 63.08844727 94.40405273 62.40844727 94.40405273 C62.40844727 95.06405273 62.40844727 95.72405273 62.40844727 96.40405273 C61.41844727 96.40405273 60.42844727 96.40405273 59.40844727 96.40405273 C59.07844727 97.06405273 58.74844727 97.72405273 58.40844727 98.40405273 C56.42844727 97.90905273 56.42844727 97.90905273 54.40844727 97.40405273 C54.40844727 96.74405273 54.40844727 96.08405273 54.40844727 95.40405273 C53.41844727 95.40405273 52.42844727 95.40405273 51.40844727 95.40405273 C50.74844727 94.41405273 50.08844727 93.42405273 49.40844727 92.40405273 C48.41844727 92.40405273 47.42844727 92.40405273 46.40844727 92.40405273 C46.45485352 93.00733398 46.50125977 93.61061523 46.54907227 94.23217773 C46.60321289 95.43100586 46.60321289 95.43100586 46.65844727 96.65405273 C46.70485352 97.44295898 46.75125977 98.23186523 46.79907227 99.04467773 C46.40844727 101.40405273 46.40844727 101.40405273 45.04443359 103.52050781 C40.90639534 106.47734445 36.80486966 105.95600989 31.84204102 105.90014648 C30.81160172 105.90160172 29.78116241 105.90305695 28.71949768 105.90455627 C26.54327565 105.90289758 24.36704186 105.89133964 22.19091797 105.87060547 C18.85471972 105.84162893 15.52010804 105.85000192 12.18383789 105.86303711 C10.06989786 105.85680041 7.95596285 105.84841001 5.84204102 105.83764648 C4.84200546 105.84058212 3.84196991 105.84351776 2.81163025 105.84654236 C1.88379227 105.83385818 0.95595428 105.82117401 0 105.80810547 C-0.8162233 105.80270248 -1.63244659 105.7972995 -2.47340393 105.79173279 C-4.59155273 105.40405273 -4.59155273 105.40405273 -6.35723877 104.26153564 C-8.14790341 101.56681691 -7.95140172 99.49883345 -7.93212891 96.28027344 C-7.93190231 95.01919266 -7.93167572 93.75811188 -7.93144226 92.45881653 C-7.91612236 91.08248541 -7.90047437 89.70615791 -7.88452148 88.32983398 C-7.87892533 86.92165071 -7.87465532 85.51346159 -7.87165833 84.10527039 C-7.86021092 80.4012333 -7.83074508 76.69754984 -7.79754639 72.99365234 C-7.766843 69.21318343 -7.75315244 65.4326573 -7.73803711 61.65209961 C-7.7058749 54.23592287 -7.65468029 46.82003738 -7.59155273 39.40405273 C-6.93155273 39.40405273 -6.27155273 39.40405273 -5.59155273 39.40405273 C-5.58346588 40.06359955 -5.57537903 40.72314636 -5.56704712 41.40267944 C-5.48119701 48.24806481 -5.3817027 55.09315402 -5.27416992 61.93823242 C-5.23581294 64.4951481 -5.20097212 67.05211899 -5.16967773 69.60913086 C-5.12417298 73.27795182 -5.06615464 76.94639047 -5.00561523 80.61499023 C-4.99406403 81.76397797 -4.98251282 82.9129657 -4.97061157 84.09677124 C-4.95074188 85.15772003 -4.93087219 86.21866882 -4.91040039 87.31176758 C-4.89707672 88.24886566 -4.88375305 89.18596375 -4.87002563 90.15145874 C-4.80120808 92.60440425 -4.80120808 92.60440425 -2.59155273 94.40405273 C-0.66035288 94.70205601 -0.66035288 94.70205601 1.56689453 94.64697266 C2.42440811 94.65004929 3.28192169 94.65312592 4.16542053 94.65629578 C5.09253342 94.64911026 6.0196463 94.64192474 6.97485352 94.63452148 C8.39869606 94.63383415 8.39869606 94.63383415 9.8513031 94.63313293 C11.85954029 94.63010912 13.86777511 94.62221898 15.87597656 94.60986328 C18.96175375 94.59160713 22.04723109 94.58935355 25.13305664 94.58959961 C27.08032488 94.58468457 29.02759107 94.57885631 30.97485352 94.57202148 C31.90399063 94.57090866 32.83312775 94.56979584 33.79042053 94.56864929 C35.07196266 94.55907951 35.07196266 94.55907951 36.37939453 94.54931641 C37.13503189 94.54550461 37.89066925 94.54169281 38.66920471 94.5377655 C40.43787949 94.59156184 40.43787949 94.59156184 41.40844727 93.40405273 C41.78825454 89.90838118 41.85896065 88.05165679 39.82069397 85.12168884 C39.07758469 84.40396805 38.3344754 83.68624725 37.56884766 82.94677734 C36.73120377 82.12249741 35.89355988 81.29821747 35.03053284 80.44895935 C34.11497116 79.5769136 33.19940948 78.70486786 32.25610352 77.80639648 C30.83548282 76.41323966 29.41487252 75.02007203 27.99488735 73.62626743 C26.00451791 71.67956885 24.00105968 69.74662779 21.99713135 67.81390381 C18.49084907 64.43129843 14.99375168 61.03945853 11.51426697 57.62928772 C9.66132399 55.81593861 7.7985799 54.01254049 5.92530823 52.22019958 C5.08451218 51.39907181 4.24371613 50.57794403 3.37744141 49.73193359 C2.63353653 49.01500839 1.88963165 48.29808319 1.1231842 47.55943298 C-0.82519639 45.11036866 -1.34222861 43.50288144 -1.59155273 40.40405273 C-1.26155273 39.74405273 -0.93155273 39.08405273 -0.59155273 38.40405273 C-1.25155273 38.40405273 -1.91155273 38.40405273 -2.59155273 38.40405273 C-2.59155273 37.74405273 -2.59155273 37.08405273 -2.59155273 36.40405273 C-0.61155273 35.90905273 -0.61155273 35.90905273 1.40844727 35.40405273 C1.73844727 37.05405273 2.06844727 38.70405273 2.40844727 40.40405273 C4.07907227 39.47592773 4.07907227 39.47592773 5.78344727 38.52905273 C6.40993164 38.18100586 7.03641602 37.83295898 7.68188477 37.47436523 C9.56970866 36.39508 9.56970866 36.39508 11.40844727 34.40405273 C11.73844727 35.39405273 12.06844727 36.38405273 12.40844727 37.40405273 C13.30321777 37.68812988 14.19798828 37.97220703 15.11987305 38.26489258 C19.01520148 39.61423203 21.24149371 41.72418959 24.02563477 44.63061523 C24.9445752 45.5595459 25.86351562 46.48847656 26.81030273 47.44555664 C28.52950928 49.21938721 28.52950928 49.21938721 30.28344727 51.02905273 C33.95469727 54.78280273 37.62594727 58.53655273 41.40844727 62.40405273 C41.40844727 44.91405273 41.40844727 27.42405273 41.40844727 9.40405273 C26.55844727 9.40405273 11.70844727 9.40405273 -3.59155273 9.40405273 C-4.25155273 11.05405273 -4.91155273 12.70405273 -5.59155273 14.40405273 C-6.25155273 14.07405273 -6.91155273 13.74405273 -7.59155273 13.40405273 C-7.67277197 11.80072483 -7.73084407 10.19621247 -7.77905273 8.59155273 C-7.81385742 7.69823242 -7.84866211 6.80491211 -7.88452148 5.88452148 C-7.59155273 3.40405273 -7.59155273 3.40405273 -6.36021423 1.77427673 C-4.1012976 0.02424046 -2.83883053 0.01879162 0 0 Z " fill="#EB3723" transform="translate(80.591552734375,41.595947265625)"/>
<path d="M0 0 C1.34644592 -0.00472824 1.34644592 -0.00472824 2.72009277 -0.009552 C4.18412537 -0.00651566 4.18412537 -0.00651566 5.67773438 -0.00341797 C6.67276978 -0.00437469 7.66780518 -0.00533142 8.69299316 -0.00631714 C10.80135155 -0.00699907 12.90971203 -0.0051439 15.01806641 -0.00097656 C18.25753465 0.0043715 21.49686423 -0.00092114 24.73632812 -0.00732422 C26.77929718 -0.00666344 28.82226615 -0.00538228 30.86523438 -0.00341797 C31.8412561 -0.0054422 32.81727783 -0.00746643 33.82287598 -0.009552 C34.72050659 -0.00639984 35.61813721 -0.00324768 36.54296875 0 C37.73424377 0.00119339 37.73424377 0.00119339 38.94958496 0.00241089 C40.77148438 0.12939453 40.77148438 0.12939453 41.77148438 1.12939453 C41.86501601 2.81741438 41.88893228 4.50934661 41.88500977 6.19995117 C41.88493423 7.28099625 41.8848587 8.36204132 41.88478088 9.47584534 C41.8796196 10.65186813 41.87445831 11.82789093 41.86914062 13.03955078 C41.86772568 14.23672226 41.86631073 15.43389374 41.86485291 16.66734314 C41.85923417 20.50888519 41.84667848 24.35036996 41.83398438 28.19189453 C41.82897179 30.7888989 41.82440847 33.38590418 41.8203125 35.98291016 C41.80925865 42.36509132 41.79250229 48.74723883 41.77148438 55.12939453 C33.12152564 47.89509468 25.17489133 39.9428815 17.15356445 32.02636719 C15.26924418 30.17386287 13.37691821 28.32946773 11.47680664 26.49316406 C8.72362675 23.83100427 5.99736226 21.14372317 3.27539062 18.44970703 C1.99590294 17.22744919 1.99590294 17.22744919 0.69056702 15.98049927 C-5.73893668 9.52932163 -5.73893668 9.52932163 -5.82250977 4.609375 C-4.99962792 -0.21156945 -4.52911414 0.00453715 0 0 Z " fill="#FDFAF9" transform="translate(81.228515625,49.87060546875)"/>
<path d="M0 0 C8.67673615 7.24359351 16.59598746 15.26060399 24.61791992 23.21289062 C26.50398924 25.07723969 28.39630407 26.93529072 30.29467773 28.78710938 C33.0430073 31.46877682 35.77135336 34.16939325 38.49609375 36.875 C39.34908554 37.70016113 40.20207733 38.52532227 41.08091736 39.37548828 C41.85915359 40.15649902 42.63738983 40.93750977 43.43920898 41.7421875 C44.12869125 42.4213623 44.81817352 43.10053711 45.52854919 43.80029297 C47.47057925 46.70348019 47.41622922 48.57616426 47 52 C44.61153173 54.38846827 44.10779425 54.2519244 40.85742188 54.25878906 C40.00313599 54.26509338 39.1488501 54.27139771 38.26867676 54.27789307 C37.34470093 54.2738446 36.4207251 54.26979614 35.46875 54.265625 C34.52189331 54.26753845 33.57503662 54.2694519 32.5994873 54.27142334 C30.59545628 54.27278573 28.59141646 54.26908556 26.58740234 54.26074219 C23.51249447 54.25004347 20.43817086 54.26063572 17.36328125 54.2734375 C15.41926954 54.27211591 13.47525819 54.26955354 11.53125 54.265625 C10.14528625 54.27169769 10.14528625 54.27169769 8.73132324 54.27789307 C7.87703735 54.27158875 7.02275146 54.26528442 6.14257812 54.25878906 C5.38916138 54.25719788 4.63574463 54.25560669 3.85949707 54.25396729 C2 54 2 54 0 52 C-0.24050903 49.78536987 -0.24050903 49.78536987 -0.22705078 46.99951172 C-0.22689972 45.95858368 -0.22674866 44.91765564 -0.22659302 43.84518433 C-0.21110916 42.1545134 -0.21110916 42.1545134 -0.1953125 40.4296875 C-0.1924826 39.27832306 -0.18965271 38.12695862 -0.18673706 36.94070435 C-0.17551408 33.25203188 -0.15040556 29.56359947 -0.125 25.875 C-0.11497294 23.37890975 -0.10584662 20.8828157 -0.09765625 18.38671875 C-0.07556784 12.25773016 -0.04206947 6.12888223 0 0 Z " fill="#FAF8F7" transform="translate(76,83)"/>
<path d="M0 0 C0.33 0 0.66 0 1 0 C1.33 2.64 1.66 5.28 2 8 C2.66 7.01 3.32 6.02 4 5 C4.07275146 6.0506665 4.14550293 7.10133301 4.22045898 8.18383789 C5.12037068 12.58926217 6.27451819 13.98114015 9.47265625 17.05859375 C10.37177734 17.93837891 11.27089844 18.81816406 12.19726562 19.72460938 C13.14279297 20.61986328 14.08832031 21.51511719 15.0625 22.4375 C16.0228551 23.36772759 16.98185493 24.29935651 17.93945312 25.23242188 C20.28001373 27.50241281 22.63340779 29.75721342 25 32 C21.265625 33.0703125 21.265625 33.0703125 18.875 32.4375 C18.25625 32.293125 17.6375 32.14875 17 32 C16.34 32.66 15.68 33.32 15 34 C14.01 34 13.02 34 12 34 C11.505 34.99 11.505 34.99 11 36 C10.34 35.34 9.68 34.68 9 34 C9.33 33.01 9.66 32.02 10 31 C8.68 31 7.36 31 6 31 C6 31.66 6 32.32 6 33 C6.66 33 7.32 33 8 33 C8 34.98 8 36.96 8 39 C7.01 38.34 6.02 37.68 5 37 C4.67 53.5 4.34 70 4 87 C3.67 87 3.34 87 3 87 C3 69.51 3 52.02 3 34 C2.34 34 1.68 34 1 34 C1 54.13 1 74.26 1 95 C0.67 95 0.34 95 0 95 C0.03854599 94.24927719 0.07709198 93.49855438 0.11680603 92.7250824 C0.57253998 83.29758373 0.83964742 73.87532657 0.9375 64.4375 C0.94531116 63.69704437 0.95312233 62.95658875 0.9611702 62.19369507 C1.71715265 39.56606994 1.71715265 39.56606994 -7.71812439 19.86949158 C-12.48294518 15.05243919 -18.00232595 11.13614833 -24 8 C-23.01 7.34 -22.02 6.68 -21 6 C-20.01 7.485 -20.01 7.485 -19 9 C-17.33985384 9.36442233 -15.67293936 9.69972883 -14 10 C-13.67 10.66 -13.34 11.32 -13 12 C-11.68 11.67 -10.36 11.34 -9 11 C-9 10.34 -9 9.68 -9 9 C-8.01 8.67 -7.02 8.34 -6 8 C-6.33 5.69 -6.66 3.38 -7 1 C-5.02 2.65 -3.04 4.3 -1 6 C-0.67 4.02 -0.34 2.04 0 0 Z " fill="#D14333" transform="translate(72,47)"/>
<path d="M0 0 C0.66 0 1.32 0 2 0 C2.00808685 0.65954681 2.01617371 1.31909363 2.02450562 1.99862671 C2.11035572 8.84401207 2.20985003 15.68910129 2.31738281 22.53417969 C2.3557398 25.09109537 2.39058062 27.64806625 2.421875 30.20507812 C2.46737976 33.87389909 2.5253981 37.54233773 2.5859375 41.2109375 C2.60326431 42.9344191 2.60326431 42.9344191 2.62094116 44.69271851 C2.64081085 45.7536673 2.66068054 46.81461609 2.68115234 47.90771484 C2.69447601 48.84481293 2.70779968 49.78191101 2.7215271 50.74740601 C2.79034466 53.20035151 2.79034466 53.20035151 5 55 C6.90875707 55.31837404 6.90875707 55.31837404 9.11083984 55.29052734 C9.95867035 55.30328705 10.80650085 55.31604675 11.68002319 55.32919312 C12.59772491 55.33141876 13.51542664 55.33364441 14.4609375 55.3359375 C15.40305084 55.3425943 16.34516418 55.3492511 17.31582642 55.35610962 C19.31144251 55.36624678 21.30709256 55.37092631 23.30273438 55.37060547 C26.3560382 55.37497288 29.4078902 55.41126514 32.4609375 55.44921875 C34.39843255 55.45508782 36.33593448 55.45905661 38.2734375 55.4609375 C39.18709076 55.47530853 40.10074402 55.48967957 41.04208374 55.50448608 C46.2221118 55.52355657 46.2221118 55.52355657 50.60791016 52.97119141 C51.0672998 52.32069824 51.52668945 51.67020508 52 51 C54.39286884 53.39286884 54.32050616 54.09447094 54.375 57.375 C54.40335938 58.14585937 54.43171875 58.91671875 54.4609375 59.7109375 C53.78196912 63.0827635 52.81703783 63.97901906 50 66 C46.48154048 66.60150812 42.99543305 66.53618711 39.43359375 66.49609375 C38.40315445 66.49754898 37.37271515 66.49900421 36.31105042 66.50050354 C34.13482838 66.49884484 31.95859459 66.48728691 29.7824707 66.46655273 C26.44627246 66.43757619 23.11166078 66.44594919 19.77539062 66.45898438 C17.66145059 66.45274768 15.54751558 66.44435728 13.43359375 66.43359375 C12.4335582 66.43652939 11.43352264 66.43946503 10.40318298 66.44248962 C9.475345 66.42980545 8.54750702 66.41712128 7.59155273 66.40405273 C6.77532944 66.39864975 5.95910614 66.39324677 5.1181488 66.38768005 C3 66 3 66 1.23431396 64.85748291 C-0.55635068 62.16276417 -0.35984899 60.09478072 -0.34057617 56.8762207 C-0.34034958 55.61513992 -0.34012299 54.35405914 -0.33988953 53.05476379 C-0.32456963 51.67843268 -0.30892164 50.30210518 -0.29296875 48.92578125 C-0.2873726 47.51759798 -0.28310259 46.10940886 -0.28010559 44.70121765 C-0.26865818 40.99718056 -0.23919235 37.2934971 -0.20599365 33.58959961 C-0.17529026 29.80913069 -0.16159971 26.02860457 -0.14648438 22.24804688 C-0.11432216 14.83187014 -0.06312755 7.41598464 0 0 Z " fill="#050404" transform="translate(73,81)"/>
<path d="M0 0 C0.92783798 -0.01268417 1.85567596 -0.02536835 2.81163025 -0.03843689 C4.31168358 -0.03403343 4.31168358 -0.03403343 5.84204102 -0.02954102 C7.38626488 -0.03740379 7.38626488 -0.03740379 8.96168518 -0.04542542 C11.13964943 -0.051851 13.31764836 -0.05050171 15.49560547 -0.04199219 C18.82981152 -0.03348842 22.16230146 -0.06222734 25.49633789 -0.09399414 C27.61157175 -0.09560635 29.72680865 -0.09502824 31.84204102 -0.09204102 C32.84005234 -0.10327499 33.83806366 -0.11450897 34.86631775 -0.12608337 C36.26280296 -0.11201195 36.26280296 -0.11201195 37.6875 -0.09765625 C38.50451889 -0.09749008 39.32153778 -0.09732391 40.16331482 -0.09715271 C43.33647971 0.61122755 44.49203506 1.80279669 46.40844727 4.40405273 C46.88946533 7.23883057 46.88946533 7.23883057 46.86254883 10.54956055 C46.8622467 11.79054504 46.86194458 13.03152954 46.8616333 14.31011963 C46.84120841 15.65914556 46.82034446 17.0081649 46.79907227 18.35717773 C46.79160829 19.7415078 46.78591609 21.12584845 46.78192139 22.51019287 C46.76667701 26.1469459 46.72740679 29.78305599 46.68310547 33.41955566 C46.64212619 37.13304955 46.62390478 40.84664772 46.60375977 44.56030273 C46.56091028 51.84184528 46.49267481 59.12285879 46.40844727 66.40405273 C45.41844727 65.74405273 44.42844727 65.08405273 43.40844727 64.40405273 C43.01644897 62.120224 43.01644897 62.120224 42.99194336 59.23583984 C42.97537689 58.15809799 42.95881042 57.08035614 42.94174194 55.96995544 C42.93848907 54.80223099 42.93523621 53.63450653 42.93188477 52.43139648 C42.91630524 51.23801163 42.90072571 50.04462677 42.88467407 48.81507874 C42.83699774 44.99057689 42.80933685 41.16625904 42.78344727 37.34155273 C42.74702751 33.51340513 42.7064647 29.68536344 42.66079712 25.85731506 C42.63345215 23.47134057 42.61215297 21.0852882 42.59725952 18.69920349 C42.58699738 17.6246138 42.57673523 16.55002411 42.56616211 15.44287109 C42.55966644 14.49181992 42.55317078 13.54076874 42.54647827 12.56089783 C42.64810051 10.42353829 42.64810051 10.42353829 41.40844727 9.40405273 C39.99619681 9.31118013 38.57935792 9.28658502 37.1640625 9.29052734 C35.81277504 9.29064064 35.81277504 9.29064064 34.43418884 9.29075623 C32.96545067 9.29849815 32.96545067 9.29849815 31.46704102 9.30639648 C30.46963394 9.30781143 29.47222687 9.30922638 28.44459534 9.3106842 C25.24501603 9.31630159 22.04550558 9.32885702 18.84594727 9.34155273 C16.68253681 9.34656549 14.51912527 9.35112879 12.35571289 9.35522461 C7.03993401 9.36627667 1.72419556 9.3830317 -3.59155273 9.40405273 C-4.25155273 11.05405273 -4.91155273 12.70405273 -5.59155273 14.40405273 C-6.25155273 14.07405273 -6.91155273 13.74405273 -7.59155273 13.40405273 C-7.67277197 11.80072483 -7.73084407 10.19621247 -7.77905273 8.59155273 C-7.81385742 7.69823242 -7.84866211 6.80491211 -7.88452148 5.88452148 C-7.59155273 3.40405273 -7.59155273 3.40405273 -6.36021423 1.77427673 C-4.1012976 0.02424046 -2.83883053 0.01879162 0 0 Z " fill="#1A1A1A" transform="translate(80.591552734375,41.595947265625)"/>
<path d="M0 0 C0.66 0.99 1.32 1.98 2 3 C2.88171875 3.25523438 3.7634375 3.51046875 4.671875 3.7734375 C9.2226629 5.45060581 11.87990427 8.21920411 15.25 11.625 C15.87390625 12.21667969 16.4978125 12.80835937 17.140625 13.41796875 C21.45267513 17.72072567 23.01736837 20.98470095 24 27 C22.35 27.33 20.7 27.66 19 28 C19 28.66 19 29.32 19 30 C18.34 30 17.68 30 17 30 C16.67 30.66 16.34 31.32 16 32 C15.67 31.01 15.34 30.02 15 29 C14.236875 29.061875 13.47375 29.12375 12.6875 29.1875 C9.46983093 28.96301146 9.10037469 28.28301597 7 26 C6.07127075 25.79648926 6.07127075 25.79648926 5.1237793 25.58886719 C1.15448387 24.48828774 -1.35694594 21.11242314 -4.1875 18.25 C-4.82880859 17.62867187 -5.47011719 17.00734375 -6.13085938 16.3671875 C-11.97563178 10.51624321 -11.97563178 10.51624321 -12 6 C-11.67 5.34 -11.34 4.68 -11 4 C-11.66 4 -12.32 4 -13 4 C-13 3.34 -13 2.68 -13 2 C-11.68 1.67 -10.36 1.34 -9 1 C-8.67 2.65 -8.34 4.3 -8 6 C-6.865625 5.38125 -5.73125 4.7625 -4.5625 4.125 C-3.92441406 3.77695313 -3.28632812 3.42890625 -2.62890625 3.0703125 C-0.83381685 2.08589976 -0.83381685 2.08589976 0 0 Z " fill="#EA3723" transform="translate(91,76)"/>
<path d="M0 0 C0.33 0 0.66 0 1 0 C1.01213028 1.0014505 1.01213028 1.0014505 1.02450562 2.02313232 C1.1105015 8.96613759 1.21000322 15.90885571 1.31738281 22.8515625 C1.3556877 25.44331036 1.39053787 28.03511166 1.421875 30.62695312 C1.46749217 34.35045483 1.5254931 38.07358815 1.5859375 41.796875 C1.59748871 42.95741394 1.60903992 44.11795288 1.62094116 45.31365967 C1.64081085 46.39447815 1.66068054 47.47529663 1.68115234 48.58886719 C1.69447601 49.53928894 1.70779968 50.48971069 1.7215271 51.46893311 C2.00938044 54.08525976 2.67219618 55.74858387 4 58 C3.4225 57.7525 2.845 57.505 2.25 57.25 C1.5075 57.1675 0.765 57.085 0 57 C-1.3743291 58.29103643 -2.70896357 59.6256709 -4 61 C-4.99 61 -5.98 61 -7 61 C-6.74438677 63.3431213 -6.40729228 65.67843403 -6 68 C-5.34 68.33 -4.68 68.66 -4 69 C-4.33 70.32 -4.66 71.64 -5 73 C-12.26 65.74 -19.52 58.48 -27 51 C-26.01 50.34 -25.02 49.68 -24 49 C-23.34 49.99 -22.68 50.98 -22 52 C-20.33985384 52.36442233 -18.67293936 52.69972883 -17 53 C-16.67 53.66 -16.34 54.32 -16 55 C-14.515 54.505 -14.515 54.505 -13 54 C-13 53.34 -13 52.68 -13 52 C-11.68 51.34 -10.36 50.68 -9 50 C-9.33 48.02 -9.66 46.04 -10 44 C-8.87411986 44.95729916 -7.7493285 45.91587895 -6.625 46.875 C-5.99851562 47.40867188 -5.37203125 47.94234375 -4.7265625 48.4921875 C-3.44163349 49.61432007 -2.20628025 50.79371975 -1 52 C-0.67 34.84 -0.34 17.68 0 0 Z " fill="#CD4435" transform="translate(123,52)"/>
<path d="M0 0 C2.25 0.25 2.25 0.25 4 1 C4 1.99 4 2.98 4 4 C4.99 4.33 5.98 4.66 7 5 C7.99 6.485 7.99 6.485 9 8 C9.61875 8.144375 10.2375 8.28875 10.875 8.4375 C13.75090369 9.19876862 15.03988856 10.82987662 17 13 C16.34 14.98 15.68 16.96 15 19 C12.36 19 9.72 19 7 19 C7 18.34 7 17.68 7 17 C5.88625 16.814375 4.7725 16.62875 3.625 16.4375 C1.830625 15.7259375 1.830625 15.7259375 0 15 C-1.4375 11.375 -1.4375 11.375 -2 8 C-3.65 8 -5.3 8 -7 8 C-7.33 7.01 -7.66 6.02 -8 5 C-7.34 5 -6.68 5 -6 5 C-6 3.68 -6 2.36 -6 1 C-5.34 1 -4.68 1 -4 1 C-4 1.99 -4 2.98 -4 4 C-3.4225 3.319375 -2.845 2.63875 -2.25 1.9375 C-1.5075 1.298125 -0.765 0.65875 0 0 Z " fill="#EE3622" transform="translate(150,29)"/>
<path d="M0 0 C0.66 0.33 1.32 0.66 2 1 C2 19.15 2 37.3 2 56 C1.01 55.34 0.02 54.68 -1 54 C-1.36749268 51.75413513 -1.36749268 51.75413513 -1.35644531 48.92358398 C-1.35944641 47.86586288 -1.36244751 46.80814178 -1.36553955 45.71836853 C-1.35319275 44.57251785 -1.34084595 43.42666718 -1.328125 42.24609375 C-1.32625183 41.07490494 -1.32437866 39.90371613 -1.32244873 38.69703674 C-1.31571718 36.21799885 -1.30178103 33.73897178 -1.28125 31.26000977 C-1.25010164 27.44993304 -1.24028189 23.64026952 -1.234375 19.83007812 C-1.22520535 17.42707825 -1.2148297 15.02408261 -1.203125 12.62109375 C-1.19887512 11.47321884 -1.19462524 10.32534393 -1.19024658 9.14268494 C-1.18063904 8.088116 -1.17103149 7.03354706 -1.16113281 5.94702148 C-1.15430481 5.0137352 -1.14747681 4.08044891 -1.14044189 3.11888123 C-1 1 -1 1 0 0 Z " fill="#030202" transform="translate(125,52)"/>
<path d="M0 0 C0.66 0.33 1.32 0.66 2 1 C-0.625 5.875 -0.625 5.875 -4 7 C-5.24950052 9.55401848 -5.24950052 9.55401848 -6.1875 12.5625 C-6.70376953 14.08037109 -6.70376953 14.08037109 -7.23046875 15.62890625 C-7.61138672 16.80259766 -7.61138672 16.80259766 -8 18 C-9.32 17.67 -10.64 17.34 -12 17 C-13.65 20.3 -15.3 23.6 -17 27 C-17.66 27 -18.32 27 -19 27 C-15.86868951 16.23710364 -7.514651 8.01910674 0 0 Z " fill="#D83B2B" transform="translate(42,30)"/>
<path d="M0 0 C0.66 0.33 1.32 0.66 2 1 C-1.76680489 4.42758044 -4.71198938 5.70601387 -9.6875 6.6875 C-13.97226537 7.47061567 -13.97226537 7.47061567 -18 9 C-19.8863912 9.084915 -21.77578515 9.107193 -23.6640625 9.09765625 C-24.78554687 9.09443359 -25.90703125 9.09121094 -27.0625 9.08789062 C-28.238125 9.07951172 -29.41375 9.07113281 -30.625 9.0625 C-31.80835937 9.05798828 -32.99171875 9.05347656 -34.2109375 9.04882812 C-37.14067507 9.03701467 -40.07031272 9.02054258 -43 9 C-43.33 8.34 -43.66 7.68 -44 7 C-42.20369141 7.05220703 -42.20369141 7.05220703 -40.37109375 7.10546875 C-26.80903081 7.37981743 -14.38118065 6.46265638 -1.85546875 0.671875 C-1.24316406 0.45015625 -0.63085938 0.2284375 0 0 Z " fill="#D74736" transform="translate(131,158)"/>
<path d="M0 0 C0.33 0 0.66 0 1 0 C1.27509294 8.2527881 1.27509294 8.2527881 -1 12 C-2.25444126 15.63787965 -2.07341002 19.18267893 -2 23 C-2.66 23 -3.32 23 -4 23 C-4 22.34 -4 21.68 -4 21 C-4.66 21 -5.32 21 -6 21 C-6.33 21.99 -6.66 22.98 -7 24 C-9.5625 25.1875 -9.5625 25.1875 -12 26 C-11.20335937 24.69289062 -11.20335937 24.69289062 -10.390625 23.359375 C-5.87529945 15.79897877 -2.37842203 8.5435423 0 0 Z " fill="#DF4939" transform="translate(168,112)"/>
<path d="M0 0 C6.89410675 12.0502034 4.3415118 29.03805968 2 42 C1.67 42 1.34 42 1 42 C0.97306425 39.87506859 0.95363372 37.75004088 0.9375 35.625 C0.92589844 34.44164062 0.91429687 33.25828125 0.90234375 32.0390625 C1 29 1 29 2 27 C2.2653113 19.9692506 1.59773055 13.00198645 1 6 C0.34 6 -0.32 6 -1 6 C-0.67 4.02 -0.34 2.04 0 0 Z " fill="#C63D2D" transform="translate(182,72)"/>
<path d="M0 0 C5.59280498 2.8783353 9.60357328 6.22201686 13.9375 10.75 C14.82018555 11.65298828 14.82018555 11.65298828 15.72070312 12.57421875 C17.15416829 14.04264648 18.578101 15.52036977 20 17 C19.67 17.66 19.34 18.32 19 19 C18.4225 18.34 17.845 17.68 17.25 17 C15.00346023 14.55709077 15.00346023 14.55709077 11 15 C10.71125 14.360625 10.4225 13.72125 10.125 13.0625 C9.17176549 10.84793921 9.17176549 10.84793921 7 10 C6.67 9.01 6.34 8.02 6 7 C5.01 6.67 4.02 6.34 3 6 C2.67 5.01 2.34 4.02 2 3 C1.34 2.67 0.68 2.34 0 2 C0 1.34 0 0.68 0 0 Z " fill="#D43F2F" transform="translate(147,23)"/>
<path d="M0 0 C0.33 0 0.66 0 1 0 C0.96519531 0.62648437 0.93039063 1.25296875 0.89453125 1.8984375 C0.86746094 2.71570313 0.84039062 3.53296875 0.8125 4.375 C0.77769531 5.18710938 0.74289063 5.99921875 0.70703125 6.8359375 C0.80371094 7.55007812 0.90039062 8.26421875 1 9 C1.99 9.66 2.98 10.32 4 11 C5.1875 14.625 5.1875 14.625 6 18 C0.93103073 13.23824099 -4.77462269 7.67613194 -7 1 C-6.01 1 -5.02 1 -4 1 C-4 1.99 -4 2.98 -4 4 C-3.34 4 -2.68 4 -2 4 C-1.34 2.68 -0.68 1.36 0 0 Z " fill="#DE3925" transform="translate(33,137)"/>
<path d="M0 0 C2.05078125 0.03255208 4.1015625 0.06510417 6.15234375 0.09765625 C6.53453142 1.75380282 6.86629477 3.42222649 7.15234375 5.09765625 C6.15234375 6.09765625 6.15234375 6.09765625 4.3046875 6.1953125 C2.25390625 6.16276042 0.203125 6.13020833 -1.84765625 6.09765625 C-2.22984392 4.44150968 -2.56160727 2.77308601 -2.84765625 1.09765625 C-1.84765625 0.09765625 -1.84765625 0.09765625 0 0 Z " fill="#CFCFCF" transform="translate(97.84765625,138.90234375)"/>
<path d="M0 0 C0.391875 0.474375 0.78375 0.94875 1.1875 1.4375 C3.40808374 3.35179633 5.13375709 3.61266988 8 4 C8.66 6.97 9.32 9.94 10 13 C5.46712884 9.26704728 1.62617712 5.61513452 -2 1 C-1.34 0.67 -0.68 0.34 0 0 Z " fill="#E03E2D" transform="translate(98,101)"/>
<path d="M0 0 C1.01320312 0.55429688 2.02640625 1.10859375 3.0703125 1.6796875 C4.4217387 2.41171002 5.77330887 3.14346679 7.125 3.875 C7.79015625 4.23980469 8.4553125 4.60460937 9.140625 4.98046875 C13.01538929 7.06980244 16.75687369 8.74424611 21 10 C21 10.33 21 10.66 21 11 C17.08839681 10.60085682 14.00447028 10.00192684 10.375 8.4375 C7.19500559 7.08305793 5.38409152 6.69235532 2 7 C1.34 4.69 0.68 2.38 0 0 Z " fill="#D64B3E" transform="translate(58,152)"/>
<path d="M0 0 C0.66 0 1.32 0 2 0 C2.06058594 0.69867188 2.12117188 1.39734375 2.18359375 2.1171875 C2.26738281 3.02726562 2.35117187 3.93734375 2.4375 4.875 C2.55931641 6.23238281 2.55931641 6.23238281 2.68359375 7.6171875 C2.86989285 10.01110861 2.86989285 10.01110861 4 12 C4.66 11.67 5.32 11.34 6 11 C7.2077558 14.62326739 6.54311128 15.64146369 5 19 C5.66 19.33 6.32 19.66 7 20 C6.01 20 5.02 20 4 20 C3.32331051 17.79471728 2.65906502 15.58561391 2 13.375 C1.62875 12.14523438 1.2575 10.91546875 0.875 9.6484375 C0.06272281 6.26153174 -0.17041013 3.46145571 0 0 Z " fill="#CD4032" transform="translate(15,105)"/>
<path d="M0 0 C2.8913784 0.40158033 4.67236367 0.74403411 7 2.5625 C9.48908319 4.35152855 11.00256744 4.24978605 14 4 C14.73080266 5.97746603 15.39421747 7.98072489 16 10 C15.67 10.66 15.34 11.32 15 12 C14.5875 11.62488281 14.175 11.24976563 13.75 10.86328125 C9.8838471 7.43724843 5.96083034 4.59373164 1.50390625 1.98046875 C1.00761719 1.65691406 0.51132813 1.33335938 0 1 C0 0.67 0 0.34 0 0 Z " fill="#DB4B3C" transform="translate(134,32)"/>
<path d="M0 0 C1.98 0 3.96 0 6 0 C2.35140239 3.04049801 -1.7444533 4.96518762 -6 7 C-6.33 5.35 -6.66 3.7 -7 2 C-3.98968256 1.06576355 -3.13349732 0.95550089 0 2 C0 1.34 0 0.68 0 0 Z " fill="#DE4431" transform="translate(65,29)"/>
<path d="M0 0 C0.66 0.33 1.32 0.66 2 1 C2 1.99 2 2.98 2 4 C2.99 4 3.98 4 5 4 C5.33 5.32 5.66 6.64 6 8 C6.99 8 7.98 8 9 8 C9.33 9.65 9.66 11.3 10 13 C5.47384007 9.32167983 1.60575001 5.58913637 -2 1 C-1.34 0.67 -0.68 0.34 0 0 Z " fill="#D94535" transform="translate(82,85)"/>
<path d="M0 0 C0 0.66 0 1.32 0 2 C-0.639375 2.2475 -1.27875 2.495 -1.9375 2.75 C-4.18741541 3.81562433 -4.18741541 3.81562433 -4.75 6.125 C-4.8325 6.74375 -4.915 7.3625 -5 8 C-5.99 7.67 -6.98 7.34 -8 7 C-10.63804589 7.39397335 -10.63804589 7.39397335 -13 8 C-9.4918251 4.18228025 -5.53544278 0 0 0 Z " fill="#D43D2F" transform="translate(62,18)"/>
<path d="M0 0 C1.32 0.66 2.64 1.32 4 2 C2.43646684 5.83776322 0.16528569 8.34999338 -3 11 C-5.8125 11.3125 -5.8125 11.3125 -8 11 C-5.3765992 8.08511023 -2.28183606 6.11496102 1 4 C0.67 2.68 0.34 1.36 0 0 Z " fill="#DB4A3B" transform="translate(141,147)"/>
<path d="M0 0 C0.66 0.33 1.32 0.66 2 1 C2 1.99 2 2.98 2 4 C2.99 4 3.98 4 5 4 C5.33 5.32 5.66 6.64 6 8 C6.66 8 7.32 8 8 8 C7.67 8.99 7.34 9.98 7 11 C4.03 8.03 1.06 5.06 -2 2 C-1.34 1.34 -0.68 0.68 0 0 Z " fill="#D94434" transform="translate(130,133)"/>
<path d="M0 0 C0.66 0.66 1.32 1.32 2 2 C-0.97 4.97 -3.94 7.94 -7 11 C-7.33 10.01 -7.66 9.02 -8 8 C-7.525625 7.54625 -7.05125 7.0925 -6.5625 6.625 C-4.90972192 5.06741796 -4.90972192 5.06741796 -4 3 C-3.34 3.33 -2.68 3.66 -2 4 C-2.33 3.01 -2.66 2.02 -3 1 C-2.01 0.67 -1.02 0.34 0 0 Z " fill="#D33A2F" transform="translate(163,149)"/>
<path d="M0 0 C4 0 4 0 5.9375 1.875 C6.618125 2.57625 7.29875 3.2775 8 4 C10.63222962 5.25436187 10.63222962 5.25436187 13 6 C13 6.66 13 7.32 13 8 C7.73691968 6.58795406 4.2437012 4.31008693 0 1 C0 0.67 0 0.34 0 0 Z " fill="#FDDED6" transform="translate(56,150)"/>
<path d="M0 0 C1.14926266 0.95421808 2.29430541 1.91352045 3.4375 2.875 C4.07558594 3.40867188 4.71367187 3.94234375 5.37109375 4.4921875 C7 6 7 6 8 8 C7.05125 7.649375 6.1025 7.29875 5.125 6.9375 C2.12939828 5.64973223 2.12939828 5.64973223 0 7 C0 4.69 0 2.38 0 0 Z " fill="#F2D7D5" transform="translate(127,134)"/>
<path d="M0 0 C2.79828356 0.38597015 3.8205884 0.80136573 5.75 2.9375 C7 5 7 5 7 7 C7.66 7 8.32 7 9 7 C9 7.66 9 8.32 9 9 C7.33333333 9 5.66666667 9 4 9 C3.71125 8.071875 3.4225 7.14375 3.125 6.1875 C2.1125 2.90208333 2.1125 2.90208333 0 0 Z " fill="#BB4539" transform="translate(119,125)"/>
<path d="M0 0 C2.03819846 2.03819846 2.67841059 3.29417798 3.6875 5.9375 C3.95949219 6.62714844 4.23148438 7.31679687 4.51171875 8.02734375 C5 10 5 10 4 13 C1.8206856 11.24135754 1.06313581 10.30604 0.48828125 7.51953125 C0.43027344 6.62621094 0.37226563 5.73289062 0.3125 4.8125 C0.24675781 3.91144531 0.18101562 3.01039062 0.11328125 2.08203125 C0.07589844 1.39496094 0.03851563 0.70789062 0 0 Z " fill="#D13C31" transform="translate(177,58)"/>
<path d="M0 0 C0 0.33 0 0.66 0 1 C-5.48675196 2.86783046 -10.22192976 3.2358396 -16 3 C-10.85913339 -0.42724441 -5.99202204 -0.1015597 0 0 Z " fill="#FCD9D0" transform="translate(95,24)"/>
<path d="M0 0 C1.14926266 0.95421808 2.29430541 1.91352045 3.4375 2.875 C4.07558594 3.40867188 4.71367187 3.94234375 5.37109375 4.4921875 C7 6 7 6 8 8 C5.69 7.34 3.38 6.68 1 6 C0.67 4.02 0.34 2.04 0 0 Z " fill="#D93D2C" transform="translate(143,126)"/>
<path d="M0 0 C3.465 1.98 3.465 1.98 7 4 C7 4.66 7 5.32 7 6 C5.35 6.33 3.7 6.66 2 7 C1.34 4.69 0.68 2.38 0 0 Z " fill="#E04436" transform="translate(58,152)"/>
<path d="M0 0 C1.65 1.32 3.3 2.64 5 4 C4.67 5.32 4.34 6.64 4 8 C2.02 5.69 0.04 3.38 -2 1 C-1.34 0.67 -0.68 0.34 0 0 Z " fill="#DA4433" transform="translate(114,117)"/>
<path d="M0 0 C1.65 1.32 3.3 2.64 5 4 C4.67 5.32 4.34 6.64 4 8 C2.02 5.69 0.04 3.38 -2 1 C-1.34 0.67 -0.68 0.34 0 0 Z " fill="#DA4433" transform="translate(98,101)"/>
<path d="M0 0 C2 0 2 0 3.5 1.375 C3.995 1.91125 4.49 2.4475 5 3 C5.66 3.66 6.32 4.32 7 5 C6 6 6 6 2.9375 6.0625 C1.4834375 6.0315625 1.4834375 6.0315625 0 6 C0 4.02 0 2.04 0 0 Z " fill="#EE3723" transform="translate(60,60)"/>
<path d="M0 0 C1.65 1.32 3.3 2.64 5 4 C4.67 5.32 4.34 6.64 4 8 C2.02 5.69 0.04 3.38 -2 1 C-1.34 0.67 -0.68 0.34 0 0 Z " fill="#DA4433" transform="translate(50,53)"/>
<path d="M0 0 C0.66 0.33 1.32 0.66 2 1 C-0.19471406 5.51135667 -2.41173718 7.06273348 -7 9 C-5.44499019 5.18315774 -2.96404505 2.80804268 0 0 Z " fill="#CB4131" transform="translate(42,30)"/>
<path d="M0 0 C0.6875 1.625 0.6875 1.625 1 4 C-0.4375 7.25 -0.4375 7.25 -2 10 C-2.66 9.67 -3.32 9.34 -4 9 C-2.80100302 5.9168649 -1.52299523 2.93720508 0 0 Z " fill="#FCE3DD" transform="translate(40,55)"/>
<path d="M0 0 C0.66 0.99 1.32 1.98 2 3 C1.125 5.6875 1.125 5.6875 0 8 C0.66 8.33 1.32 8.66 2 9 C1.01 9 0.02 9 -1 9 C-1.33 6.69 -1.66 4.38 -2 2 C-1.34 2 -0.68 2 0 2 C0 1.34 0 0.68 0 0 Z " fill="#D83D28" transform="translate(20,116)"/>
<path d="M0 0 C3 1.8125 3 1.8125 6 4 C6 4.99 6 5.98 6 7 C3.5625 6.3125 3.5625 6.3125 1 5 C0.1875 2.375 0.1875 2.375 0 0 Z " fill="#CD3B2F" transform="translate(120,103)"/>
<path d="M0 0 C0.99 0.33 1.98 0.66 3 1 C3 2.65 3 4.3 3 6 C1.68 5.67 0.36 5.34 -1 5 C-0.67 4.34 -0.34 3.68 0 3 C-0.66 3 -1.32 3 -2 3 C-2 2.34 -2 1.68 -2 1 C-1.34 0.67 -0.68 0.34 0 0 Z " fill="#F33523" transform="translate(80,77)"/>
<path d="M0 0 C0.99 0 1.98 0 3 0 C1.8141763 3.37503669 0.72426311 5.64722731 -2 8 C-2 6.35 -2 4.7 -2 3 C-1.34 3 -0.68 3 0 3 C0 2.01 0 1.02 0 0 Z " fill="#D84738" transform="translate(39,52)"/>
<path d="M0 0 C1.65 0 3.3 0 5 0 C5.59732819 2.76264289 6 5.16032769 6 8 C4.02 5.36 2.04 2.72 0 0 Z " fill="#CF392C" transform="translate(32,147)"/>
<path d="M0 0 C0.99 0.33 1.98 0.66 3 1 C1.71034824 2.37562854 0.37310707 3.70766393 -1 5 C-1.66 5 -2.32 5 -3 5 C-2.625 3.0625 -2.625 3.0625 -2 1 C-1.34 0.67 -0.68 0.34 0 0 Z " fill="#D23827" transform="translate(148,162)"/>
<path d="M0 0 C0.5775 0.45375 1.155 0.9075 1.75 1.375 C3.7800333 2.84113516 5.73539843 3.94857784 8 5 C5.69 5 3.38 5 1 5 C0.67 3.35 0.34 1.7 0 0 Z " fill="#DA3E2B" transform="translate(151,134)"/>
<path d="M0 0 C0 1.98 0 3.96 0 6 C-1.65 4.35 -3.3 2.7 -5 1 C-2 0 -2 0 0 0 Z " fill="#FDDCDC" transform="translate(72,48)"/>
<path d="M0 0 C2.475 0.495 2.475 0.495 5 1 C5.66 3.31 6.32 5.62 7 8 C4.35247996 5.42215154 2.05567935 3.08351902 0 0 Z " fill="#D84D40" transform="translate(150,44)"/>
<path d="M0 0 C1.98 0.495 1.98 0.495 4 1 C3.67 2.32 3.34 3.64 3 5 C1.68 5.33 0.36 5.66 -1 6 C-0.67 4.02 -0.34 2.04 0 0 Z " fill="#DE4A37" transform="translate(55,36)"/>
</svg>
